<mxfile host="app.diagrams.net" agent="Mozilla/5.0 (Macintosh; Intel Mac OS X 10_15_7) AppleWebKit/537.36 (KHTML, like Gecko) Chrome/131.0.0.0 Safari/537.36" version="24.8.4">
  <diagram name="Page-1" id="zgIfJPxlpA5FmsdMfLJh">
    <mxGraphModel dx="1442" dy="391" grid="1" gridSize="10" guides="1" tooltips="1" connect="1" arrows="1" fold="1" page="1" pageScale="1" pageWidth="827" pageHeight="1169" math="0" shadow="0">
      <root>
        <mxCell id="0" />
        <mxCell id="1" parent="0" />
        <mxCell id="yRm_6xU5N3fanCTpzdw1-7" style="edgeStyle=orthogonalEdgeStyle;rounded=0;orthogonalLoop=1;jettySize=auto;html=1;entryX=0.5;entryY=0;entryDx=0;entryDy=0;exitX=0.5;exitY=1;exitDx=0;exitDy=0;" parent="1" source="yRm_6xU5N3fanCTpzdw1-1" target="yRm_6xU5N3fanCTpzdw1-2" edge="1">
          <mxGeometry relative="1" as="geometry" />
        </mxCell>
        <mxCell id="yRm_6xU5N3fanCTpzdw1-8" style="edgeStyle=orthogonalEdgeStyle;rounded=0;orthogonalLoop=1;jettySize=auto;html=1;exitX=0.5;exitY=1;exitDx=0;exitDy=0;entryX=0.5;entryY=0;entryDx=0;entryDy=0;" parent="1" source="yRm_6xU5N3fanCTpzdw1-1" target="yRm_6xU5N3fanCTpzdw1-3" edge="1">
          <mxGeometry relative="1" as="geometry" />
        </mxCell>
        <mxCell id="yRm_6xU5N3fanCTpzdw1-9" style="edgeStyle=orthogonalEdgeStyle;rounded=0;orthogonalLoop=1;jettySize=auto;html=1;exitX=0.5;exitY=1;exitDx=0;exitDy=0;entryX=0.5;entryY=0;entryDx=0;entryDy=0;" parent="1" source="yRm_6xU5N3fanCTpzdw1-1" target="yRm_6xU5N3fanCTpzdw1-4" edge="1">
          <mxGeometry relative="1" as="geometry" />
        </mxCell>
        <mxCell id="yRm_6xU5N3fanCTpzdw1-10" style="edgeStyle=orthogonalEdgeStyle;rounded=0;orthogonalLoop=1;jettySize=auto;html=1;exitX=0.5;exitY=1;exitDx=0;exitDy=0;entryX=0.5;entryY=0;entryDx=0;entryDy=0;" parent="1" source="yRm_6xU5N3fanCTpzdw1-1" target="yRm_6xU5N3fanCTpzdw1-5" edge="1">
          <mxGeometry relative="1" as="geometry" />
        </mxCell>
        <mxCell id="yRm_6xU5N3fanCTpzdw1-1" value="Chipin App" style="rounded=0;whiteSpace=wrap;html=1;" parent="1" vertex="1">
          <mxGeometry x="354" y="20" width="120" height="60" as="geometry" />
        </mxCell>
        <mxCell id="yRm_6xU5N3fanCTpzdw1-18" style="edgeStyle=orthogonalEdgeStyle;rounded=0;orthogonalLoop=1;jettySize=auto;html=1;entryX=0.5;entryY=0;entryDx=0;entryDy=0;" parent="1" target="yRm_6xU5N3fanCTpzdw1-14" edge="1">
          <mxGeometry relative="1" as="geometry">
            <mxPoint x="-214.46" y="180" as="sourcePoint" />
          </mxGeometry>
        </mxCell>
        <mxCell id="yRm_6xU5N3fanCTpzdw1-19" style="edgeStyle=orthogonalEdgeStyle;rounded=0;orthogonalLoop=1;jettySize=auto;html=1;exitX=0.75;exitY=1;exitDx=0;exitDy=0;entryX=0.5;entryY=0;entryDx=0;entryDy=0;" parent="1" target="yRm_6xU5N3fanCTpzdw1-15" edge="1">
          <mxGeometry relative="1" as="geometry">
            <Array as="points">
              <mxPoint x="-74.46000000000001" y="180" />
              <mxPoint x="-74.46000000000001" y="270" />
            </Array>
            <mxPoint x="-154.46" y="180.0000000000001" as="sourcePoint" />
          </mxGeometry>
        </mxCell>
        <mxCell id="yRm_6xU5N3fanCTpzdw1-2" value="User Management" style="rounded=0;whiteSpace=wrap;html=1;" parent="1" vertex="1">
          <mxGeometry x="-234.46" y="120" width="120" height="60" as="geometry" />
        </mxCell>
        <mxCell id="yRm_6xU5N3fanCTpzdw1-70" style="edgeStyle=orthogonalEdgeStyle;rounded=0;orthogonalLoop=1;jettySize=auto;html=1;exitX=0.25;exitY=1;exitDx=0;exitDy=0;entryX=0.25;entryY=0;entryDx=0;entryDy=0;" parent="1" source="yRm_6xU5N3fanCTpzdw1-3" target="yRm_6xU5N3fanCTpzdw1-68" edge="1">
          <mxGeometry relative="1" as="geometry">
            <Array as="points">
              <mxPoint x="250" y="240" />
              <mxPoint x="290" y="240" />
              <mxPoint x="290" y="280" />
            </Array>
          </mxGeometry>
        </mxCell>
        <mxCell id="yRm_6xU5N3fanCTpzdw1-3" value="Group Management" style="rounded=0;whiteSpace=wrap;html=1;" parent="1" vertex="1">
          <mxGeometry x="220" y="120" width="120" height="60" as="geometry" />
        </mxCell>
        <mxCell id="yRm_6xU5N3fanCTpzdw1-172" style="edgeStyle=orthogonalEdgeStyle;rounded=0;orthogonalLoop=1;jettySize=auto;html=1;exitX=0.25;exitY=1;exitDx=0;exitDy=0;entryX=0.5;entryY=0;entryDx=0;entryDy=0;" parent="1" source="yRm_6xU5N3fanCTpzdw1-4" target="yRm_6xU5N3fanCTpzdw1-168" edge="1">
          <mxGeometry relative="1" as="geometry" />
        </mxCell>
        <mxCell id="yRm_6xU5N3fanCTpzdw1-182" style="edgeStyle=orthogonalEdgeStyle;rounded=0;orthogonalLoop=1;jettySize=auto;html=1;exitX=0.75;exitY=1;exitDx=0;exitDy=0;entryX=0.5;entryY=0;entryDx=0;entryDy=0;" parent="1" source="yRm_6xU5N3fanCTpzdw1-4" target="yRm_6xU5N3fanCTpzdw1-169" edge="1">
          <mxGeometry relative="1" as="geometry">
            <mxPoint x="610" y="250" as="targetPoint" />
          </mxGeometry>
        </mxCell>
        <mxCell id="yRm_6xU5N3fanCTpzdw1-4" value="Invitation &amp;amp; Voting" style="rounded=0;whiteSpace=wrap;html=1;" parent="1" vertex="1">
          <mxGeometry x="460" y="120" width="120" height="60" as="geometry" />
        </mxCell>
        <mxCell id="yRm_6xU5N3fanCTpzdw1-200" style="edgeStyle=orthogonalEdgeStyle;rounded=0;orthogonalLoop=1;jettySize=auto;html=1;exitX=0.5;exitY=1;exitDx=0;exitDy=0;entryX=0.5;entryY=0;entryDx=0;entryDy=0;" parent="1" source="yRm_6xU5N3fanCTpzdw1-5" target="yRm_6xU5N3fanCTpzdw1-171" edge="1">
          <mxGeometry relative="1" as="geometry" />
        </mxCell>
        <mxCell id="yRm_6xU5N3fanCTpzdw1-5" value="Security &amp;amp; Authentication" style="rounded=0;whiteSpace=wrap;html=1;" parent="1" vertex="1">
          <mxGeometry x="650" y="120" width="120" height="60" as="geometry" />
        </mxCell>
        <mxCell id="yRm_6xU5N3fanCTpzdw1-12" value="" style="html=1;verticalLabelPosition=bottom;align=center;labelBackgroundColor=#ffffff;verticalAlign=top;strokeWidth=2;strokeColor=#000000;shadow=0;dashed=0;shape=mxgraph.ios7.icons.reload;" parent="1" vertex="1">
          <mxGeometry x="398" y="90" width="31" height="20" as="geometry" />
        </mxCell>
        <mxCell id="yRm_6xU5N3fanCTpzdw1-13" value="until app is closed" style="text;html=1;align=center;verticalAlign=middle;resizable=0;points=[];autosize=1;strokeColor=none;fillColor=none;" parent="1" vertex="1">
          <mxGeometry x="340" y="108" width="120" height="30" as="geometry" />
        </mxCell>
        <mxCell id="yRm_6xU5N3fanCTpzdw1-14" value="Register User" style="rounded=0;whiteSpace=wrap;html=1;" parent="1" vertex="1">
          <mxGeometry x="-276.96000000000004" y="280" width="70" height="40" as="geometry" />
        </mxCell>
        <mxCell id="yRm_6xU5N3fanCTpzdw1-44" style="edgeStyle=orthogonalEdgeStyle;rounded=0;orthogonalLoop=1;jettySize=auto;html=1;exitX=0.75;exitY=1;exitDx=0;exitDy=0;entryX=0.5;entryY=0;entryDx=0;entryDy=0;" parent="1" source="yRm_6xU5N3fanCTpzdw1-15" target="yRm_6xU5N3fanCTpzdw1-17" edge="1">
          <mxGeometry relative="1" as="geometry" />
        </mxCell>
        <mxCell id="yRm_6xU5N3fanCTpzdw1-100" style="edgeStyle=orthogonalEdgeStyle;rounded=0;orthogonalLoop=1;jettySize=auto;html=1;exitX=0.25;exitY=1;exitDx=0;exitDy=0;" parent="1" source="yRm_6xU5N3fanCTpzdw1-15" target="yRm_6xU5N3fanCTpzdw1-16" edge="1">
          <mxGeometry relative="1" as="geometry" />
        </mxCell>
        <mxCell id="yRm_6xU5N3fanCTpzdw1-15" value="Login User" style="rounded=0;whiteSpace=wrap;html=1;" parent="1" vertex="1">
          <mxGeometry x="-172.96" y="280" width="66" height="40" as="geometry" />
        </mxCell>
        <mxCell id="yRm_6xU5N3fanCTpzdw1-16" value="Profile Administration" style="rounded=0;whiteSpace=wrap;html=1;" parent="1" vertex="1">
          <mxGeometry x="-264.46000000000004" y="430" width="80" height="50" as="geometry" />
        </mxCell>
        <mxCell id="yRm_6xU5N3fanCTpzdw1-17" value="Balance Management" style="rounded=0;whiteSpace=wrap;html=1;" parent="1" vertex="1">
          <mxGeometry x="-134.44" y="435" width="70" height="40" as="geometry" />
        </mxCell>
        <mxCell id="yRm_6xU5N3fanCTpzdw1-20" value="" style="group;dropTarget=0;pointerEvents=0;rotation=-90;" parent="1" vertex="1">
          <mxGeometry x="-251.99545091927305" y="200" width="45.035450919273046" height="15" as="geometry" />
        </mxCell>
        <mxCell id="yRm_6xU5N3fanCTpzdw1-21" value="" style="html=1;overflow=block;blockSpacing=1;whiteSpace=wrap;ellipse;fontSize=13;spacing=3.8;strokeColor=#unset;fillOpacity=100;rounded=1;absoluteArcSize=1;arcSize=9;rotation=0;fillColor=#000000;strokeWidth=NaN;lucidId=aJupBf46AVSY;" parent="yRm_6xU5N3fanCTpzdw1-20" vertex="1">
          <mxGeometry x="14" y="-15" width="15" height="15" as="geometry" />
        </mxCell>
        <mxCell id="yRm_6xU5N3fanCTpzdw1-22" value="" style="html=1;jettySize=18;whiteSpace=wrap;fontSize=13;strokeColor=#3a414a;strokeOpacity=100;strokeWidth=0.8;rounded=0;startArrow=none;endArrow=block;endFill=1;exitX=0.5;exitY=1.051;exitPerimeter=0;lucidId=aJup3SFMS550;" parent="yRm_6xU5N3fanCTpzdw1-20" source="yRm_6xU5N3fanCTpzdw1-21" edge="1">
          <mxGeometry width="100" height="100" relative="1" as="geometry">
            <Array as="points" />
            <mxPoint x="22" y="30" as="targetPoint" />
          </mxGeometry>
        </mxCell>
        <mxCell id="yRm_6xU5N3fanCTpzdw1-26" value="" style="group;dropTarget=0;pointerEvents=0;rotation=90;" parent="1" vertex="1">
          <mxGeometry x="-221.95545091927306" y="212.5" width="45.035450919273046" height="15" as="geometry" />
        </mxCell>
        <mxCell id="yRm_6xU5N3fanCTpzdw1-27" value="" style="html=1;overflow=block;blockSpacing=1;whiteSpace=wrap;ellipse;fontSize=13;spacing=3.8;strokeColor=#000000;fillOpacity=100;rounded=1;absoluteArcSize=1;arcSize=9;rotation=180;fillColor=#FFFFFF;strokeWidth=1;lucidId=aJupBf46AVSY;" parent="yRm_6xU5N3fanCTpzdw1-26" vertex="1">
          <mxGeometry x="15" y="15" width="15" height="15" as="geometry" />
        </mxCell>
        <mxCell id="yRm_6xU5N3fanCTpzdw1-28" value="" style="html=1;jettySize=18;whiteSpace=wrap;fontSize=13;strokeColor=#3a414a;strokeOpacity=100;strokeWidth=0.8;rounded=0;startArrow=none;endArrow=block;endFill=1;exitX=0.5;exitY=1.051;exitPerimeter=0;lucidId=aJup3SFMS550;" parent="yRm_6xU5N3fanCTpzdw1-26" source="yRm_6xU5N3fanCTpzdw1-27" edge="1">
          <mxGeometry width="100" height="100" relative="1" as="geometry">
            <Array as="points" />
            <mxPoint x="23" y="-15" as="targetPoint" />
          </mxGeometry>
        </mxCell>
        <mxCell id="yRm_6xU5N3fanCTpzdw1-29" value="user created" style="text;html=1;align=center;verticalAlign=middle;resizable=0;points=[];autosize=1;strokeColor=none;fillColor=none;" parent="1" vertex="1">
          <mxGeometry x="-317.02" y="197.5" width="90" height="30" as="geometry" />
        </mxCell>
        <mxCell id="yRm_6xU5N3fanCTpzdw1-30" value="user details inputted" style="text;html=1;align=center;verticalAlign=middle;resizable=0;points=[];autosize=1;strokeColor=none;fillColor=none;fontSize=9;" parent="1" vertex="1">
          <mxGeometry x="-206.96" y="210" width="100" height="20" as="geometry" />
        </mxCell>
        <mxCell id="yRm_6xU5N3fanCTpzdw1-32" value="" style="group;dropTarget=0;pointerEvents=0;rotation=-90;" parent="1" vertex="1">
          <mxGeometry x="-86.93545091927302" y="235" width="45.035450919273046" height="15" as="geometry" />
        </mxCell>
        <mxCell id="yRm_6xU5N3fanCTpzdw1-33" value="" style="html=1;overflow=block;blockSpacing=1;whiteSpace=wrap;ellipse;fontSize=13;spacing=3.8;strokeColor=#unset;fillOpacity=100;rounded=1;absoluteArcSize=1;arcSize=9;rotation=0;fillColor=#000000;strokeWidth=NaN;lucidId=aJupBf46AVSY;" parent="yRm_6xU5N3fanCTpzdw1-32" vertex="1">
          <mxGeometry x="14" y="-15" width="15" height="15" as="geometry" />
        </mxCell>
        <mxCell id="yRm_6xU5N3fanCTpzdw1-34" value="" style="html=1;jettySize=18;whiteSpace=wrap;fontSize=13;strokeColor=#3a414a;strokeOpacity=100;strokeWidth=0.8;rounded=0;startArrow=none;endArrow=block;endFill=1;exitX=0.5;exitY=1.051;exitPerimeter=0;lucidId=aJup3SFMS550;" parent="yRm_6xU5N3fanCTpzdw1-32" source="yRm_6xU5N3fanCTpzdw1-33" edge="1">
          <mxGeometry width="100" height="100" relative="1" as="geometry">
            <Array as="points" />
            <mxPoint x="22" y="30" as="targetPoint" />
          </mxGeometry>
        </mxCell>
        <mxCell id="yRm_6xU5N3fanCTpzdw1-35" value="user details inputted" style="text;html=1;align=center;verticalAlign=middle;resizable=0;points=[];autosize=1;strokeColor=none;fillColor=none;" parent="1" vertex="1">
          <mxGeometry x="-199.46" y="240" width="130" height="30" as="geometry" />
        </mxCell>
        <mxCell id="yRm_6xU5N3fanCTpzdw1-37" value="user verified" style="text;html=1;align=center;verticalAlign=middle;resizable=0;points=[];autosize=1;strokeColor=none;fillColor=none;" parent="1" vertex="1">
          <mxGeometry x="201.52" y="235" width="90" height="30" as="geometry" />
        </mxCell>
        <mxCell id="yRm_6xU5N3fanCTpzdw1-38" value="" style="group;dropTarget=0;pointerEvents=0;rotation=90;" parent="1" vertex="1">
          <mxGeometry x="-114.45545091927306" y="210" width="45.035450919273046" height="15" as="geometry" />
        </mxCell>
        <mxCell id="yRm_6xU5N3fanCTpzdw1-39" value="" style="html=1;overflow=block;blockSpacing=1;whiteSpace=wrap;ellipse;fontSize=13;spacing=3.8;strokeColor=#000000;fillOpacity=100;rounded=1;absoluteArcSize=1;arcSize=9;rotation=180;fillColor=#FFFFFF;strokeWidth=1;lucidId=aJupBf46AVSY;" parent="yRm_6xU5N3fanCTpzdw1-38" vertex="1">
          <mxGeometry x="15" y="15" width="15" height="15" as="geometry" />
        </mxCell>
        <mxCell id="yRm_6xU5N3fanCTpzdw1-40" value="" style="html=1;jettySize=18;whiteSpace=wrap;fontSize=13;strokeColor=#3a414a;strokeOpacity=100;strokeWidth=0.8;rounded=0;startArrow=none;endArrow=block;endFill=1;exitX=0.5;exitY=1.051;exitPerimeter=0;lucidId=aJup3SFMS550;" parent="yRm_6xU5N3fanCTpzdw1-38" source="yRm_6xU5N3fanCTpzdw1-39" edge="1">
          <mxGeometry width="100" height="100" relative="1" as="geometry">
            <Array as="points" />
            <mxPoint x="23" y="-15" as="targetPoint" />
          </mxGeometry>
        </mxCell>
        <mxCell id="yRm_6xU5N3fanCTpzdw1-45" value="" style="group;dropTarget=0;pointerEvents=0;rotation=90;" parent="1" vertex="1">
          <mxGeometry x="-266.995450919273" y="390" width="45.035450919273046" height="15" as="geometry" />
        </mxCell>
        <mxCell id="yRm_6xU5N3fanCTpzdw1-46" value="" style="html=1;overflow=block;blockSpacing=1;whiteSpace=wrap;ellipse;fontSize=13;spacing=3.8;strokeColor=#000000;fillOpacity=100;rounded=1;absoluteArcSize=1;arcSize=9;rotation=180;fillColor=#FFFFFF;strokeWidth=1;lucidId=aJupBf46AVSY;" parent="yRm_6xU5N3fanCTpzdw1-45" vertex="1">
          <mxGeometry x="15" y="15" width="15" height="15" as="geometry" />
        </mxCell>
        <mxCell id="yRm_6xU5N3fanCTpzdw1-47" value="" style="html=1;jettySize=18;whiteSpace=wrap;fontSize=13;strokeColor=#3a414a;strokeOpacity=100;strokeWidth=0.8;rounded=0;startArrow=none;endArrow=block;endFill=1;exitX=0.5;exitY=1.051;exitPerimeter=0;lucidId=aJup3SFMS550;" parent="yRm_6xU5N3fanCTpzdw1-45" source="yRm_6xU5N3fanCTpzdw1-46" edge="1">
          <mxGeometry width="100" height="100" relative="1" as="geometry">
            <Array as="points" />
            <mxPoint x="23" y="-15" as="targetPoint" />
          </mxGeometry>
        </mxCell>
        <mxCell id="yRm_6xU5N3fanCTpzdw1-53" value="" style="group;dropTarget=0;pointerEvents=0;rotation=-90;" parent="1" vertex="1">
          <mxGeometry x="-232.99545091927303" y="390" width="45.035450919273046" height="15" as="geometry" />
        </mxCell>
        <mxCell id="yRm_6xU5N3fanCTpzdw1-54" value="" style="html=1;overflow=block;blockSpacing=1;whiteSpace=wrap;ellipse;fontSize=13;spacing=3.8;strokeColor=#unset;fillOpacity=100;rounded=1;absoluteArcSize=1;arcSize=9;rotation=0;fillColor=#000000;strokeWidth=NaN;lucidId=aJupBf46AVSY;" parent="yRm_6xU5N3fanCTpzdw1-53" vertex="1">
          <mxGeometry x="14" y="-15" width="15" height="15" as="geometry" />
        </mxCell>
        <mxCell id="yRm_6xU5N3fanCTpzdw1-55" value="" style="html=1;jettySize=18;whiteSpace=wrap;fontSize=13;strokeColor=#3a414a;strokeOpacity=100;strokeWidth=0.8;rounded=0;startArrow=none;endArrow=block;endFill=1;exitX=0.5;exitY=1.051;exitPerimeter=0;lucidId=aJup3SFMS550;" parent="yRm_6xU5N3fanCTpzdw1-53" source="yRm_6xU5N3fanCTpzdw1-54" edge="1">
          <mxGeometry width="100" height="100" relative="1" as="geometry">
            <Array as="points" />
            <mxPoint x="22" y="30" as="targetPoint" />
          </mxGeometry>
        </mxCell>
        <mxCell id="yRm_6xU5N3fanCTpzdw1-56" value="load admin panel" style="text;html=1;align=center;verticalAlign=middle;resizable=0;points=[];autosize=1;strokeColor=none;fillColor=none;" parent="1" vertex="1">
          <mxGeometry x="-357" y="382.5" width="110" height="30" as="geometry" />
        </mxCell>
        <mxCell id="yRm_6xU5N3fanCTpzdw1-58" value="check website exists" style="text;html=1;align=center;verticalAlign=middle;resizable=0;points=[];autosize=1;strokeColor=none;fillColor=none;fontSize=10;" parent="1" vertex="1">
          <mxGeometry x="-216.96" y="382.5" width="110" height="30" as="geometry" />
        </mxCell>
        <mxCell id="yRm_6xU5N3fanCTpzdw1-60" value="" style="group;dropTarget=0;pointerEvents=0;rotation=90;" parent="1" vertex="1">
          <mxGeometry x="-114.45545091927306" y="397.5" width="45.035450919273046" height="15" as="geometry" />
        </mxCell>
        <mxCell id="yRm_6xU5N3fanCTpzdw1-61" value="" style="html=1;overflow=block;blockSpacing=1;whiteSpace=wrap;ellipse;fontSize=13;spacing=3.8;strokeColor=#000000;fillOpacity=100;rounded=1;absoluteArcSize=1;arcSize=9;rotation=180;fillColor=#FFFFFF;strokeWidth=1;lucidId=aJupBf46AVSY;" parent="yRm_6xU5N3fanCTpzdw1-60" vertex="1">
          <mxGeometry x="15" y="15" width="15" height="15" as="geometry" />
        </mxCell>
        <mxCell id="yRm_6xU5N3fanCTpzdw1-62" value="" style="html=1;jettySize=18;whiteSpace=wrap;fontSize=13;strokeColor=#3a414a;strokeOpacity=100;strokeWidth=0.8;rounded=0;startArrow=none;endArrow=block;endFill=1;exitX=0.5;exitY=1.051;exitPerimeter=0;lucidId=aJup3SFMS550;" parent="yRm_6xU5N3fanCTpzdw1-60" source="yRm_6xU5N3fanCTpzdw1-61" edge="1">
          <mxGeometry width="100" height="100" relative="1" as="geometry">
            <Array as="points" />
            <mxPoint x="23" y="-15" as="targetPoint" />
          </mxGeometry>
        </mxCell>
        <mxCell id="yRm_6xU5N3fanCTpzdw1-63" value="" style="group;dropTarget=0;pointerEvents=0;rotation=-90;" parent="1" vertex="1">
          <mxGeometry x="-134.43545091927302" y="342.5" width="45.035450919273046" height="15" as="geometry" />
        </mxCell>
        <mxCell id="yRm_6xU5N3fanCTpzdw1-64" value="" style="html=1;overflow=block;blockSpacing=1;whiteSpace=wrap;ellipse;fontSize=13;spacing=3.8;strokeColor=#unset;fillOpacity=100;rounded=1;absoluteArcSize=1;arcSize=9;rotation=0;fillColor=#000000;strokeWidth=NaN;lucidId=aJupBf46AVSY;" parent="yRm_6xU5N3fanCTpzdw1-63" vertex="1">
          <mxGeometry x="14" y="-15" width="15" height="15" as="geometry" />
        </mxCell>
        <mxCell id="yRm_6xU5N3fanCTpzdw1-65" value="" style="html=1;jettySize=18;whiteSpace=wrap;fontSize=13;strokeColor=#3a414a;strokeOpacity=100;strokeWidth=0.8;rounded=0;startArrow=none;endArrow=block;endFill=1;exitX=0.5;exitY=1.051;exitPerimeter=0;lucidId=aJup3SFMS550;" parent="yRm_6xU5N3fanCTpzdw1-63" source="yRm_6xU5N3fanCTpzdw1-64" edge="1">
          <mxGeometry width="100" height="100" relative="1" as="geometry">
            <Array as="points" />
            <mxPoint x="22" y="30" as="targetPoint" />
          </mxGeometry>
        </mxCell>
        <mxCell id="yRm_6xU5N3fanCTpzdw1-66" value="load balance" style="text;html=1;align=center;verticalAlign=middle;resizable=0;points=[];autosize=1;strokeColor=none;fillColor=none;" parent="1" vertex="1">
          <mxGeometry x="-90.46000000000001" y="390" width="90" height="30" as="geometry" />
        </mxCell>
        <mxCell id="yRm_6xU5N3fanCTpzdw1-67" value="check balance" style="text;html=1;align=center;verticalAlign=middle;resizable=0;points=[];autosize=1;strokeColor=none;fillColor=none;fontSize=10;" parent="1" vertex="1">
          <mxGeometry x="-119.44" y="335" width="90" height="30" as="geometry" />
        </mxCell>
        <mxCell id="yRm_6xU5N3fanCTpzdw1-68" value="Create Group" style="rounded=0;whiteSpace=wrap;html=1;" parent="1" vertex="1">
          <mxGeometry x="255" y="290" width="50" height="40" as="geometry" />
        </mxCell>
        <mxCell id="yRm_6xU5N3fanCTpzdw1-110" style="edgeStyle=orthogonalEdgeStyle;rounded=0;orthogonalLoop=1;jettySize=auto;html=1;exitX=0.5;exitY=1;exitDx=0;exitDy=0;entryX=0.5;entryY=0;entryDx=0;entryDy=0;" parent="1" source="yRm_6xU5N3fanCTpzdw1-69" target="yRm_6xU5N3fanCTpzdw1-109" edge="1">
          <mxGeometry relative="1" as="geometry">
            <Array as="points">
              <mxPoint x="356" y="383" />
              <mxPoint x="370" y="383" />
              <mxPoint x="370" y="435" />
            </Array>
          </mxGeometry>
        </mxCell>
        <mxCell id="yRm_6xU5N3fanCTpzdw1-69" value="Join Group" style="rounded=0;whiteSpace=wrap;html=1;" parent="1" vertex="1">
          <mxGeometry x="328.08" y="292.5" width="56" height="37.5" as="geometry" />
        </mxCell>
        <mxCell id="yRm_6xU5N3fanCTpzdw1-71" style="edgeStyle=orthogonalEdgeStyle;rounded=0;orthogonalLoop=1;jettySize=auto;html=1;exitX=0.75;exitY=1;exitDx=0;exitDy=0;entryX=0.304;entryY=-0.039;entryDx=0;entryDy=0;entryPerimeter=0;" parent="1" source="yRm_6xU5N3fanCTpzdw1-3" target="yRm_6xU5N3fanCTpzdw1-69" edge="1">
          <mxGeometry relative="1" as="geometry">
            <Array as="points">
              <mxPoint x="310" y="200" />
              <mxPoint x="386" y="200" />
              <mxPoint x="386" y="291" />
            </Array>
          </mxGeometry>
        </mxCell>
        <mxCell id="yRm_6xU5N3fanCTpzdw1-135" style="edgeStyle=orthogonalEdgeStyle;rounded=0;orthogonalLoop=1;jettySize=auto;html=1;exitX=0.25;exitY=1;exitDx=0;exitDy=0;entryX=0.5;entryY=0;entryDx=0;entryDy=0;" parent="1" source="yRm_6xU5N3fanCTpzdw1-73" target="yRm_6xU5N3fanCTpzdw1-132" edge="1">
          <mxGeometry relative="1" as="geometry" />
        </mxCell>
        <mxCell id="yRm_6xU5N3fanCTpzdw1-141" style="edgeStyle=orthogonalEdgeStyle;rounded=0;orthogonalLoop=1;jettySize=auto;html=1;exitX=0.25;exitY=1;exitDx=0;exitDy=0;" parent="1" source="yRm_6xU5N3fanCTpzdw1-73" target="yRm_6xU5N3fanCTpzdw1-133" edge="1">
          <mxGeometry relative="1" as="geometry" />
        </mxCell>
        <mxCell id="yRm_6xU5N3fanCTpzdw1-73" value="Manage Group Members" style="rounded=0;whiteSpace=wrap;html=1;" parent="1" vertex="1">
          <mxGeometry x="264" y="435" width="75" height="40" as="geometry" />
        </mxCell>
        <mxCell id="yRm_6xU5N3fanCTpzdw1-76" value="" style="group;dropTarget=0;pointerEvents=0;rotation=90;" parent="1" vertex="1">
          <mxGeometry x="240.00454908072695" y="200" width="45.035450919273046" height="15" as="geometry" />
        </mxCell>
        <mxCell id="yRm_6xU5N3fanCTpzdw1-77" value="" style="html=1;overflow=block;blockSpacing=1;whiteSpace=wrap;ellipse;fontSize=13;spacing=3.8;strokeColor=#000000;fillOpacity=100;rounded=1;absoluteArcSize=1;arcSize=9;rotation=180;fillColor=#FFFFFF;strokeWidth=1;lucidId=aJupBf46AVSY;" parent="yRm_6xU5N3fanCTpzdw1-76" vertex="1">
          <mxGeometry x="15" y="15" width="15" height="15" as="geometry" />
        </mxCell>
        <mxCell id="yRm_6xU5N3fanCTpzdw1-78" value="" style="html=1;jettySize=18;whiteSpace=wrap;fontSize=13;strokeColor=#3a414a;strokeOpacity=100;strokeWidth=0.8;rounded=0;startArrow=none;endArrow=block;endFill=1;exitX=0.5;exitY=1.051;exitPerimeter=0;lucidId=aJup3SFMS550;" parent="yRm_6xU5N3fanCTpzdw1-76" source="yRm_6xU5N3fanCTpzdw1-77" edge="1">
          <mxGeometry width="100" height="100" relative="1" as="geometry">
            <Array as="points" />
            <mxPoint x="23" y="-15" as="targetPoint" />
          </mxGeometry>
        </mxCell>
        <mxCell id="yRm_6xU5N3fanCTpzdw1-79" value="load group creation pane&lt;div&gt;admin user joins group&lt;/div&gt;" style="text;html=1;align=center;verticalAlign=middle;resizable=0;points=[];autosize=1;strokeColor=none;fillColor=none;fontSize=6;" parent="1" vertex="1">
          <mxGeometry x="264" y="210" width="90" height="30" as="geometry" />
        </mxCell>
        <mxCell id="yRm_6xU5N3fanCTpzdw1-80" value="" style="group;dropTarget=0;pointerEvents=0;rotation=-90;" parent="1" vertex="1">
          <mxGeometry x="283.044549080727" y="252" width="45.035450919273046" height="15" as="geometry" />
        </mxCell>
        <mxCell id="yRm_6xU5N3fanCTpzdw1-81" value="" style="html=1;overflow=block;blockSpacing=1;whiteSpace=wrap;ellipse;fontSize=13;spacing=3.8;strokeColor=#unset;fillOpacity=100;rounded=1;absoluteArcSize=1;arcSize=9;rotation=0;fillColor=#000000;strokeWidth=NaN;lucidId=aJupBf46AVSY;" parent="yRm_6xU5N3fanCTpzdw1-80" vertex="1">
          <mxGeometry x="14" y="-15" width="15" height="15" as="geometry" />
        </mxCell>
        <mxCell id="yRm_6xU5N3fanCTpzdw1-82" value="" style="html=1;jettySize=18;whiteSpace=wrap;fontSize=13;strokeColor=#3a414a;strokeOpacity=100;strokeWidth=0.8;rounded=0;startArrow=none;endArrow=block;endFill=1;exitX=0.5;exitY=1.051;exitPerimeter=0;lucidId=aJup3SFMS550;" parent="yRm_6xU5N3fanCTpzdw1-80" source="yRm_6xU5N3fanCTpzdw1-81" edge="1">
          <mxGeometry width="100" height="100" relative="1" as="geometry">
            <Array as="points" />
            <mxPoint x="22" y="30" as="targetPoint" />
          </mxGeometry>
        </mxCell>
        <mxCell id="yRm_6xU5N3fanCTpzdw1-83" value="&lt;font style=&quot;font-size: 7px;&quot;&gt;check website exists&lt;/font&gt;" style="text;html=1;align=center;verticalAlign=middle;resizable=0;points=[];autosize=1;strokeColor=none;fillColor=none;fontSize=7;" parent="1" vertex="1">
          <mxGeometry x="302.08000000000004" y="260" width="90" height="20" as="geometry" />
        </mxCell>
        <mxCell id="yRm_6xU5N3fanCTpzdw1-84" style="edgeStyle=orthogonalEdgeStyle;rounded=0;orthogonalLoop=1;jettySize=auto;html=1;entryX=0.452;entryY=0.042;entryDx=0;entryDy=0;entryPerimeter=0;" parent="1" source="yRm_6xU5N3fanCTpzdw1-68" target="yRm_6xU5N3fanCTpzdw1-73" edge="1">
          <mxGeometry relative="1" as="geometry" />
        </mxCell>
        <mxCell id="yRm_6xU5N3fanCTpzdw1-86" value="" style="group;dropTarget=0;pointerEvents=0;rotation=-90;" parent="1" vertex="1">
          <mxGeometry x="246.95" y="364" width="45.04" height="15" as="geometry" />
        </mxCell>
        <mxCell id="yRm_6xU5N3fanCTpzdw1-87" value="" style="html=1;overflow=block;blockSpacing=1;whiteSpace=wrap;ellipse;fontSize=13;spacing=3.8;strokeColor=#unset;fillOpacity=100;rounded=1;absoluteArcSize=1;arcSize=9;rotation=0;fillColor=#000000;strokeWidth=NaN;lucidId=aJupBf46AVSY;" parent="yRm_6xU5N3fanCTpzdw1-86" vertex="1">
          <mxGeometry x="14.00141415549034" y="-15" width="15.001515166596791" height="15" as="geometry" />
        </mxCell>
        <mxCell id="yRm_6xU5N3fanCTpzdw1-88" value="" style="html=1;jettySize=18;whiteSpace=wrap;fontSize=13;strokeColor=#3a414a;strokeOpacity=100;strokeWidth=0.8;rounded=0;startArrow=none;endArrow=block;endFill=1;exitX=0.5;exitY=1.051;exitPerimeter=0;lucidId=aJup3SFMS550;" parent="yRm_6xU5N3fanCTpzdw1-86" source="yRm_6xU5N3fanCTpzdw1-87" edge="1">
          <mxGeometry width="100" height="100" relative="1" as="geometry">
            <Array as="points" />
            <mxPoint x="22.00222224434196" y="30" as="targetPoint" />
          </mxGeometry>
        </mxCell>
        <mxCell id="yRm_6xU5N3fanCTpzdw1-90" value="check website exists" style="text;html=1;align=center;verticalAlign=middle;resizable=0;points=[];autosize=1;strokeColor=none;fillColor=none;fontSize=10;" parent="1" vertex="1">
          <mxGeometry x="166.01" y="352.5" width="110" height="30" as="geometry" />
        </mxCell>
        <mxCell id="yRm_6xU5N3fanCTpzdw1-91" value="" style="group;dropTarget=0;pointerEvents=0;rotation=90;" parent="1" vertex="1">
          <mxGeometry x="285.044549080727" y="401.5" width="45.035450919273046" height="15" as="geometry" />
        </mxCell>
        <mxCell id="yRm_6xU5N3fanCTpzdw1-92" value="" style="html=1;overflow=block;blockSpacing=1;whiteSpace=wrap;ellipse;fontSize=13;spacing=3.8;strokeColor=#000000;fillOpacity=100;rounded=1;absoluteArcSize=1;arcSize=9;rotation=180;fillColor=#FFFFFF;strokeWidth=1;lucidId=aJupBf46AVSY;" parent="yRm_6xU5N3fanCTpzdw1-91" vertex="1">
          <mxGeometry x="15" y="15" width="15" height="15" as="geometry" />
        </mxCell>
        <mxCell id="yRm_6xU5N3fanCTpzdw1-93" value="" style="html=1;jettySize=18;whiteSpace=wrap;fontSize=13;strokeColor=#3a414a;strokeOpacity=100;strokeWidth=0.8;rounded=0;startArrow=none;endArrow=block;endFill=1;exitX=0.5;exitY=1.051;exitPerimeter=0;lucidId=aJup3SFMS550;" parent="yRm_6xU5N3fanCTpzdw1-91" source="yRm_6xU5N3fanCTpzdw1-92" edge="1">
          <mxGeometry width="100" height="100" relative="1" as="geometry">
            <Array as="points" />
            <mxPoint x="23" y="-15" as="targetPoint" />
          </mxGeometry>
        </mxCell>
        <mxCell id="yRm_6xU5N3fanCTpzdw1-95" value="&lt;span style=&quot;font-size: 7px;&quot;&gt;load website&lt;/span&gt;" style="text;html=1;align=center;verticalAlign=middle;resizable=0;points=[];autosize=1;strokeColor=none;fillColor=none;" parent="1" vertex="1">
          <mxGeometry x="302.08000000000004" y="390" width="60" height="30" as="geometry" />
        </mxCell>
        <mxCell id="yRm_6xU5N3fanCTpzdw1-96" value="" style="group;dropTarget=0;pointerEvents=0;rotation=-90;" parent="1" vertex="1">
          <mxGeometry x="370.0045490807269" y="215" width="45.035450919273046" height="15" as="geometry" />
        </mxCell>
        <mxCell id="yRm_6xU5N3fanCTpzdw1-97" value="" style="html=1;overflow=block;blockSpacing=1;whiteSpace=wrap;ellipse;fontSize=13;spacing=3.8;strokeColor=#unset;fillOpacity=100;rounded=1;absoluteArcSize=1;arcSize=9;rotation=0;fillColor=#000000;strokeWidth=NaN;lucidId=aJupBf46AVSY;" parent="yRm_6xU5N3fanCTpzdw1-96" vertex="1">
          <mxGeometry x="14" y="-15" width="15" height="15" as="geometry" />
        </mxCell>
        <mxCell id="yRm_6xU5N3fanCTpzdw1-98" value="" style="html=1;jettySize=18;whiteSpace=wrap;fontSize=13;strokeColor=#3a414a;strokeOpacity=100;strokeWidth=0.8;rounded=0;startArrow=none;endArrow=block;endFill=1;exitX=0.5;exitY=1.051;exitPerimeter=0;lucidId=aJup3SFMS550;" parent="yRm_6xU5N3fanCTpzdw1-96" source="yRm_6xU5N3fanCTpzdw1-97" edge="1">
          <mxGeometry width="100" height="100" relative="1" as="geometry">
            <Array as="points" />
            <mxPoint x="22" y="30" as="targetPoint" />
          </mxGeometry>
        </mxCell>
        <mxCell id="yRm_6xU5N3fanCTpzdw1-99" value="&lt;font style=&quot;font-size: 10px;&quot;&gt;check website exists&lt;/font&gt;" style="text;html=1;align=center;verticalAlign=middle;resizable=0;points=[];autosize=1;strokeColor=none;fillColor=none;fontSize=10;" parent="1" vertex="1">
          <mxGeometry x="382.08" y="218" width="110" height="30" as="geometry" />
        </mxCell>
        <mxCell id="yRm_6xU5N3fanCTpzdw1-103" value="" style="group;dropTarget=0;pointerEvents=0;rotation=90;" parent="1" vertex="1">
          <mxGeometry x="370.004549080727" y="265" width="45.035450919273046" height="15" as="geometry" />
        </mxCell>
        <mxCell id="yRm_6xU5N3fanCTpzdw1-104" value="" style="html=1;overflow=block;blockSpacing=1;whiteSpace=wrap;ellipse;fontSize=13;spacing=3.8;strokeColor=#000000;fillOpacity=100;rounded=1;absoluteArcSize=1;arcSize=9;rotation=180;fillColor=#FFFFFF;strokeWidth=1;lucidId=aJupBf46AVSY;" parent="yRm_6xU5N3fanCTpzdw1-103" vertex="1">
          <mxGeometry x="15" y="15" width="15" height="15" as="geometry" />
        </mxCell>
        <mxCell id="yRm_6xU5N3fanCTpzdw1-105" value="" style="html=1;jettySize=18;whiteSpace=wrap;fontSize=13;strokeColor=#3a414a;strokeOpacity=100;strokeWidth=0.8;rounded=0;startArrow=none;endArrow=block;endFill=1;exitX=0.5;exitY=1.051;exitPerimeter=0;lucidId=aJup3SFMS550;" parent="yRm_6xU5N3fanCTpzdw1-103" source="yRm_6xU5N3fanCTpzdw1-104" edge="1">
          <mxGeometry width="100" height="100" relative="1" as="geometry">
            <Array as="points" />
            <mxPoint x="23" y="-15" as="targetPoint" />
          </mxGeometry>
        </mxCell>
        <mxCell id="yRm_6xU5N3fanCTpzdw1-106" value="user joins group" style="text;html=1;align=center;verticalAlign=middle;resizable=0;points=[];autosize=1;strokeColor=none;fillColor=none;fontSize=9;" parent="1" vertex="1">
          <mxGeometry x="384.08" y="260" width="90" height="20" as="geometry" />
        </mxCell>
        <mxCell id="yRm_6xU5N3fanCTpzdw1-109" value="Payment Method Management" style="rounded=0;whiteSpace=wrap;html=1;" parent="1" vertex="1">
          <mxGeometry x="354" y="435" width="75" height="40" as="geometry" />
        </mxCell>
        <mxCell id="yRm_6xU5N3fanCTpzdw1-120" value="" style="group;dropTarget=0;pointerEvents=0;rotation=-90;" parent="1" vertex="1">
          <mxGeometry x="340.0045490807269" y="349" width="45.035450919273046" height="15" as="geometry" />
        </mxCell>
        <mxCell id="yRm_6xU5N3fanCTpzdw1-121" value="" style="html=1;overflow=block;blockSpacing=1;whiteSpace=wrap;ellipse;fontSize=13;spacing=3.8;strokeColor=#unset;fillOpacity=100;rounded=1;absoluteArcSize=1;arcSize=9;rotation=0;fillColor=#000000;strokeWidth=NaN;lucidId=aJupBf46AVSY;" parent="yRm_6xU5N3fanCTpzdw1-120" vertex="1">
          <mxGeometry x="14" y="-15" width="15" height="15" as="geometry" />
        </mxCell>
        <mxCell id="yRm_6xU5N3fanCTpzdw1-122" value="" style="html=1;jettySize=18;whiteSpace=wrap;fontSize=13;strokeColor=#3a414a;strokeOpacity=100;strokeWidth=0.8;rounded=0;startArrow=none;endArrow=block;endFill=1;exitX=0.5;exitY=1.051;exitPerimeter=0;lucidId=aJup3SFMS550;" parent="yRm_6xU5N3fanCTpzdw1-120" source="yRm_6xU5N3fanCTpzdw1-121" edge="1">
          <mxGeometry width="100" height="100" relative="1" as="geometry">
            <Array as="points" />
            <mxPoint x="22" y="30" as="targetPoint" />
          </mxGeometry>
        </mxCell>
        <mxCell id="yRm_6xU5N3fanCTpzdw1-123" value="check website exists" style="text;html=1;align=center;verticalAlign=middle;resizable=0;points=[];autosize=1;strokeColor=none;fillColor=none;fontSize=10;" parent="1" vertex="1">
          <mxGeometry x="355" y="349" width="110" height="30" as="geometry" />
        </mxCell>
        <mxCell id="yRm_6xU5N3fanCTpzdw1-124" value="" style="group;dropTarget=0;pointerEvents=0;rotation=90;" parent="1" vertex="1">
          <mxGeometry x="362.084549080727" y="402.5" width="45.035450919273046" height="15" as="geometry" />
        </mxCell>
        <mxCell id="yRm_6xU5N3fanCTpzdw1-125" value="" style="html=1;overflow=block;blockSpacing=1;whiteSpace=wrap;ellipse;fontSize=13;spacing=3.8;strokeColor=#000000;fillOpacity=100;rounded=1;absoluteArcSize=1;arcSize=9;rotation=180;fillColor=#FFFFFF;strokeWidth=1;lucidId=aJupBf46AVSY;" parent="yRm_6xU5N3fanCTpzdw1-124" vertex="1">
          <mxGeometry x="15" y="15" width="15" height="15" as="geometry" />
        </mxCell>
        <mxCell id="yRm_6xU5N3fanCTpzdw1-126" value="" style="html=1;jettySize=18;whiteSpace=wrap;fontSize=13;strokeColor=#3a414a;strokeOpacity=100;strokeWidth=0.8;rounded=0;startArrow=none;endArrow=block;endFill=1;exitX=0.5;exitY=1.051;exitPerimeter=0;lucidId=aJup3SFMS550;" parent="yRm_6xU5N3fanCTpzdw1-124" source="yRm_6xU5N3fanCTpzdw1-125" edge="1">
          <mxGeometry width="100" height="100" relative="1" as="geometry">
            <Array as="points" />
            <mxPoint x="23" y="-15" as="targetPoint" />
          </mxGeometry>
        </mxCell>
        <mxCell id="yRm_6xU5N3fanCTpzdw1-127" value="add payment method" style="text;html=1;align=center;verticalAlign=middle;resizable=0;points=[];autosize=1;strokeColor=none;fillColor=none;fontSize=9;" parent="1" vertex="1">
          <mxGeometry x="377.08000000000004" y="400" width="110" height="20" as="geometry" />
        </mxCell>
        <mxCell id="yRm_6xU5N3fanCTpzdw1-128" style="edgeStyle=orthogonalEdgeStyle;rounded=0;orthogonalLoop=1;jettySize=auto;html=1;exitX=0.75;exitY=1;exitDx=0;exitDy=0;entryX=0.25;entryY=1;entryDx=0;entryDy=0;" parent="1" source="yRm_6xU5N3fanCTpzdw1-109" target="yRm_6xU5N3fanCTpzdw1-109" edge="1">
          <mxGeometry relative="1" as="geometry" />
        </mxCell>
        <mxCell id="yRm_6xU5N3fanCTpzdw1-132" value="Add Member" style="rounded=0;whiteSpace=wrap;html=1;" parent="1" vertex="1">
          <mxGeometry x="89.99999999999999" y="520" width="70" height="40" as="geometry" />
        </mxCell>
        <mxCell id="yRm_6xU5N3fanCTpzdw1-133" value="Remove Member" style="rounded=0;whiteSpace=wrap;html=1;" parent="1" vertex="1">
          <mxGeometry x="267.5" y="520" width="70" height="40" as="geometry" />
        </mxCell>
        <mxCell id="yRm_6xU5N3fanCTpzdw1-139" value="" style="whiteSpace=wrap;html=1;aspect=fixed;fillColor=#000000;" parent="1" vertex="1">
          <mxGeometry x="270" y="475" width="13.04" height="13.04" as="geometry" />
        </mxCell>
        <mxCell id="yRm_6xU5N3fanCTpzdw1-143" value="" style="group;dropTarget=0;pointerEvents=0;rotation=-90;" parent="1" vertex="1">
          <mxGeometry x="91.06454908072689" y="488.04" width="45.035450919273046" height="15" as="geometry" />
        </mxCell>
        <mxCell id="yRm_6xU5N3fanCTpzdw1-151" style="edgeStyle=orthogonalEdgeStyle;rounded=0;orthogonalLoop=1;jettySize=auto;html=1;exitX=0;exitY=1;exitDx=0;exitDy=0;entryX=0.75;entryY=1;entryDx=0;entryDy=0;" parent="yRm_6xU5N3fanCTpzdw1-143" source="yRm_6xU5N3fanCTpzdw1-144" target="yRm_6xU5N3fanCTpzdw1-143" edge="1">
          <mxGeometry relative="1" as="geometry" />
        </mxCell>
        <mxCell id="yRm_6xU5N3fanCTpzdw1-144" value="" style="html=1;overflow=block;blockSpacing=1;whiteSpace=wrap;ellipse;fontSize=13;spacing=3.8;strokeColor=#unset;fillOpacity=100;rounded=1;absoluteArcSize=1;arcSize=9;rotation=0;fillColor=#000000;strokeWidth=NaN;lucidId=aJupBf46AVSY;" parent="yRm_6xU5N3fanCTpzdw1-143" vertex="1">
          <mxGeometry x="14" y="-15" width="15" height="15" as="geometry" />
        </mxCell>
        <mxCell id="yRm_6xU5N3fanCTpzdw1-145" value="" style="html=1;jettySize=18;whiteSpace=wrap;fontSize=13;strokeColor=#3a414a;strokeOpacity=100;strokeWidth=0.8;rounded=0;startArrow=none;endArrow=block;endFill=1;exitX=0.5;exitY=1.051;exitPerimeter=0;lucidId=aJup3SFMS550;" parent="yRm_6xU5N3fanCTpzdw1-143" source="yRm_6xU5N3fanCTpzdw1-144" edge="1">
          <mxGeometry width="100" height="100" relative="1" as="geometry">
            <Array as="points" />
            <mxPoint x="22" y="30" as="targetPoint" />
          </mxGeometry>
        </mxCell>
        <mxCell id="yRm_6xU5N3fanCTpzdw1-146" value="&lt;font style=&quot;font-size: 10px;&quot;&gt;check members&lt;/font&gt;" style="text;html=1;align=center;verticalAlign=middle;resizable=0;points=[];autosize=1;strokeColor=none;fillColor=none;fontSize=10;" parent="1" vertex="1">
          <mxGeometry x="29.999999999999975" y="488.04" width="90" height="30" as="geometry" />
        </mxCell>
        <mxCell id="yRm_6xU5N3fanCTpzdw1-147" value="" style="group;dropTarget=0;pointerEvents=0;rotation=-180;" parent="1" vertex="1">
          <mxGeometry x="163.42454908072693" y="501" width="45.035450919273046" height="15" as="geometry" />
        </mxCell>
        <mxCell id="yRm_6xU5N3fanCTpzdw1-148" value="" style="html=1;overflow=block;blockSpacing=1;whiteSpace=wrap;ellipse;fontSize=13;spacing=3.8;strokeColor=#000000;fillOpacity=100;rounded=1;absoluteArcSize=1;arcSize=9;rotation=-90;fillColor=#FFFFFF;strokeWidth=1;lucidId=aJupBf46AVSY;" parent="yRm_6xU5N3fanCTpzdw1-147" vertex="1">
          <mxGeometry width="15" height="15" as="geometry" />
        </mxCell>
        <mxCell id="yRm_6xU5N3fanCTpzdw1-149" value="" style="html=1;jettySize=18;whiteSpace=wrap;fontSize=13;strokeColor=#3a414a;strokeOpacity=100;strokeWidth=0.8;rounded=0;startArrow=none;endArrow=block;endFill=1;exitX=0.5;exitY=1.051;exitPerimeter=0;lucidId=aJup3SFMS550;" parent="yRm_6xU5N3fanCTpzdw1-147" source="yRm_6xU5N3fanCTpzdw1-148" edge="1">
          <mxGeometry width="100" height="100" relative="1" as="geometry">
            <Array as="points" />
            <mxPoint x="45" y="8" as="targetPoint" />
          </mxGeometry>
        </mxCell>
        <mxCell id="yRm_6xU5N3fanCTpzdw1-150" value="user joins group" style="text;html=1;align=center;verticalAlign=middle;resizable=0;points=[];autosize=1;strokeColor=none;fillColor=none;fontSize=9;" parent="1" vertex="1">
          <mxGeometry x="149.99999999999994" y="509.99999999999994" width="90" height="20" as="geometry" />
        </mxCell>
        <mxCell id="yRm_6xU5N3fanCTpzdw1-157" value="" style="group;dropTarget=0;pointerEvents=0;rotation=-90;" parent="1" vertex="1">
          <mxGeometry x="294.01454908072685" y="491.5" width="45.035450919273046" height="15" as="geometry" />
        </mxCell>
        <mxCell id="yRm_6xU5N3fanCTpzdw1-159" value="" style="html=1;overflow=block;blockSpacing=1;whiteSpace=wrap;ellipse;fontSize=13;spacing=3.8;strokeColor=#unset;fillOpacity=100;rounded=1;absoluteArcSize=1;arcSize=9;rotation=0;fillColor=#000000;strokeWidth=NaN;lucidId=aJupBf46AVSY;" parent="yRm_6xU5N3fanCTpzdw1-157" vertex="1">
          <mxGeometry x="14" y="-15" width="15" height="15" as="geometry" />
        </mxCell>
        <mxCell id="yRm_6xU5N3fanCTpzdw1-160" value="" style="html=1;jettySize=18;whiteSpace=wrap;fontSize=13;strokeColor=#3a414a;strokeOpacity=100;strokeWidth=0.8;rounded=0;startArrow=none;endArrow=block;endFill=1;exitX=0.5;exitY=1.051;exitPerimeter=0;lucidId=aJup3SFMS550;" parent="yRm_6xU5N3fanCTpzdw1-157" source="yRm_6xU5N3fanCTpzdw1-159" edge="1">
          <mxGeometry width="100" height="100" relative="1" as="geometry">
            <Array as="points" />
            <mxPoint x="22" y="30" as="targetPoint" />
          </mxGeometry>
        </mxCell>
        <mxCell id="yRm_6xU5N3fanCTpzdw1-161" value="&lt;font style=&quot;font-size: 10px;&quot;&gt;check members&lt;/font&gt;" style="text;html=1;align=center;verticalAlign=middle;resizable=0;points=[];autosize=1;strokeColor=none;fillColor=none;fontSize=10;" parent="1" vertex="1">
          <mxGeometry x="307.99999999999994" y="491.5" width="90" height="30" as="geometry" />
        </mxCell>
        <mxCell id="yRm_6xU5N3fanCTpzdw1-164" value="" style="group;dropTarget=0;pointerEvents=0;rotation=90;" parent="1" vertex="1">
          <mxGeometry x="235.92454908072696" y="511.5" width="45.035450919273046" height="15" as="geometry" />
        </mxCell>
        <mxCell id="yRm_6xU5N3fanCTpzdw1-165" value="" style="html=1;overflow=block;blockSpacing=1;whiteSpace=wrap;ellipse;fontSize=13;spacing=3.8;strokeColor=#000000;fillOpacity=100;rounded=1;absoluteArcSize=1;arcSize=9;rotation=180;fillColor=#FFFFFF;strokeWidth=1;lucidId=aJupBf46AVSY;" parent="yRm_6xU5N3fanCTpzdw1-164" vertex="1">
          <mxGeometry x="15" y="15" width="15" height="15" as="geometry" />
        </mxCell>
        <mxCell id="yRm_6xU5N3fanCTpzdw1-166" value="" style="html=1;jettySize=18;whiteSpace=wrap;fontSize=13;strokeColor=#3a414a;strokeOpacity=100;strokeWidth=0.8;rounded=0;startArrow=none;endArrow=block;endFill=1;exitX=0.5;exitY=1.051;exitPerimeter=0;lucidId=aJup3SFMS550;" parent="yRm_6xU5N3fanCTpzdw1-164" source="yRm_6xU5N3fanCTpzdw1-165" edge="1">
          <mxGeometry width="100" height="100" relative="1" as="geometry">
            <Array as="points" />
            <mxPoint x="23" y="-15" as="targetPoint" />
          </mxGeometry>
        </mxCell>
        <mxCell id="yRm_6xU5N3fanCTpzdw1-167" value="user leaves group" style="text;html=1;align=center;verticalAlign=middle;resizable=0;points=[];autosize=1;strokeColor=none;fillColor=none;fontSize=9;" parent="1" vertex="1">
          <mxGeometry x="178.99999999999997" y="540" width="100" height="20" as="geometry" />
        </mxCell>
        <mxCell id="yRm_6xU5N3fanCTpzdw1-168" value="Send Invitations" style="rounded=0;whiteSpace=wrap;html=1;" parent="1" vertex="1">
          <mxGeometry x="487.08" y="295" width="50" height="40" as="geometry" />
        </mxCell>
        <mxCell id="yRm_6xU5N3fanCTpzdw1-169" value="Vote on Join Request" style="rounded=0;whiteSpace=wrap;html=1;" parent="1" vertex="1">
          <mxGeometry x="570" y="295" width="50" height="40" as="geometry" />
        </mxCell>
        <mxCell id="yRm_6xU5N3fanCTpzdw1-170" value="Encrypt Data" style="rounded=0;whiteSpace=wrap;html=1;fontSize=9;" parent="1" vertex="1">
          <mxGeometry x="685" y="435" width="50" height="40" as="geometry" />
        </mxCell>
        <mxCell id="yRm_6xU5N3fanCTpzdw1-203" style="edgeStyle=orthogonalEdgeStyle;rounded=0;orthogonalLoop=1;jettySize=auto;html=1;exitX=0.5;exitY=1;exitDx=0;exitDy=0;entryX=0.5;entryY=0;entryDx=0;entryDy=0;" parent="1" source="yRm_6xU5N3fanCTpzdw1-171" target="yRm_6xU5N3fanCTpzdw1-170" edge="1">
          <mxGeometry relative="1" as="geometry" />
        </mxCell>
        <mxCell id="yRm_6xU5N3fanCTpzdw1-171" value="Authenticate User" style="rounded=0;whiteSpace=wrap;html=1;fontSize=9;" parent="1" vertex="1">
          <mxGeometry x="685" y="295" width="50" height="40" as="geometry" />
        </mxCell>
        <mxCell id="yRm_6xU5N3fanCTpzdw1-173" value="" style="group;dropTarget=0;pointerEvents=0;rotation=-90;" parent="1" vertex="1">
          <mxGeometry x="460.0045490807269" y="200" width="45.035450919273046" height="15" as="geometry" />
        </mxCell>
        <mxCell id="yRm_6xU5N3fanCTpzdw1-174" value="" style="html=1;overflow=block;blockSpacing=1;whiteSpace=wrap;ellipse;fontSize=13;spacing=3.8;strokeColor=#unset;fillOpacity=100;rounded=1;absoluteArcSize=1;arcSize=9;rotation=0;fillColor=#000000;strokeWidth=NaN;lucidId=aJupBf46AVSY;" parent="yRm_6xU5N3fanCTpzdw1-173" vertex="1">
          <mxGeometry x="14" y="-15" width="15" height="15" as="geometry" />
        </mxCell>
        <mxCell id="yRm_6xU5N3fanCTpzdw1-175" value="" style="html=1;jettySize=18;whiteSpace=wrap;fontSize=13;strokeColor=#3a414a;strokeOpacity=100;strokeWidth=0.8;rounded=0;startArrow=none;endArrow=block;endFill=1;exitX=0.5;exitY=1.051;exitPerimeter=0;lucidId=aJup3SFMS550;" parent="yRm_6xU5N3fanCTpzdw1-173" source="yRm_6xU5N3fanCTpzdw1-174" edge="1">
          <mxGeometry width="100" height="100" relative="1" as="geometry">
            <Array as="points" />
            <mxPoint x="22" y="30" as="targetPoint" />
          </mxGeometry>
        </mxCell>
        <mxCell id="yRm_6xU5N3fanCTpzdw1-176" value="&lt;font style=&quot;font-size: 10px;&quot;&gt;validate email&lt;/font&gt;" style="text;html=1;align=center;verticalAlign=middle;resizable=0;points=[];autosize=1;strokeColor=none;fillColor=none;fontSize=10;" parent="1" vertex="1">
          <mxGeometry x="407.12" y="192.5" width="80" height="30" as="geometry" />
        </mxCell>
        <mxCell id="yRm_6xU5N3fanCTpzdw1-178" value="" style="group;dropTarget=0;pointerEvents=0;rotation=90;" parent="1" vertex="1">
          <mxGeometry x="480.00454908072703" y="255" width="45.035450919273046" height="15" as="geometry" />
        </mxCell>
        <mxCell id="yRm_6xU5N3fanCTpzdw1-179" value="" style="html=1;overflow=block;blockSpacing=1;whiteSpace=wrap;ellipse;fontSize=13;spacing=3.8;strokeColor=#000000;fillOpacity=100;rounded=1;absoluteArcSize=1;arcSize=9;rotation=180;fillColor=#FFFFFF;strokeWidth=1;lucidId=aJupBf46AVSY;" parent="yRm_6xU5N3fanCTpzdw1-178" vertex="1">
          <mxGeometry x="15" y="15" width="15" height="15" as="geometry" />
        </mxCell>
        <mxCell id="yRm_6xU5N3fanCTpzdw1-180" value="" style="html=1;jettySize=18;whiteSpace=wrap;fontSize=13;strokeColor=#3a414a;strokeOpacity=100;strokeWidth=0.8;rounded=0;startArrow=none;endArrow=block;endFill=1;exitX=0.5;exitY=1.051;exitPerimeter=0;lucidId=aJup3SFMS550;" parent="yRm_6xU5N3fanCTpzdw1-178" source="yRm_6xU5N3fanCTpzdw1-179" edge="1">
          <mxGeometry width="100" height="100" relative="1" as="geometry">
            <Array as="points" />
            <mxPoint x="23" y="-15" as="targetPoint" />
          </mxGeometry>
        </mxCell>
        <mxCell id="yRm_6xU5N3fanCTpzdw1-181" value="invite received" style="text;html=1;align=center;verticalAlign=middle;resizable=0;points=[];autosize=1;strokeColor=none;fillColor=none;fontSize=9;" parent="1" vertex="1">
          <mxGeometry x="429" y="249.5" width="80" height="20" as="geometry" />
        </mxCell>
        <mxCell id="yRm_6xU5N3fanCTpzdw1-192" value="" style="group;dropTarget=0;pointerEvents=0;rotation=-90;" parent="1" vertex="1">
          <mxGeometry x="517.884549080727" y="200" width="45.035450919273046" height="15" as="geometry" />
        </mxCell>
        <mxCell id="yRm_6xU5N3fanCTpzdw1-193" value="" style="html=1;overflow=block;blockSpacing=1;whiteSpace=wrap;ellipse;fontSize=13;spacing=3.8;strokeColor=#unset;fillOpacity=100;rounded=1;absoluteArcSize=1;arcSize=9;rotation=0;fillColor=#000000;strokeWidth=NaN;lucidId=aJupBf46AVSY;" parent="yRm_6xU5N3fanCTpzdw1-192" vertex="1">
          <mxGeometry x="14" y="-15" width="15" height="15" as="geometry" />
        </mxCell>
        <mxCell id="yRm_6xU5N3fanCTpzdw1-194" value="" style="html=1;jettySize=18;whiteSpace=wrap;fontSize=13;strokeColor=#3a414a;strokeOpacity=100;strokeWidth=0.8;rounded=0;startArrow=none;endArrow=block;endFill=1;exitX=0.5;exitY=1.051;exitPerimeter=0;lucidId=aJup3SFMS550;" parent="yRm_6xU5N3fanCTpzdw1-192" source="yRm_6xU5N3fanCTpzdw1-193" edge="1">
          <mxGeometry width="100" height="100" relative="1" as="geometry">
            <Array as="points" />
            <mxPoint x="22" y="30" as="targetPoint" />
          </mxGeometry>
        </mxCell>
        <mxCell id="yRm_6xU5N3fanCTpzdw1-195" value="&lt;font style=&quot;font-size: 10px;&quot;&gt;start vote&lt;/font&gt;" style="text;html=1;align=center;verticalAlign=middle;resizable=0;points=[];autosize=1;strokeColor=none;fillColor=none;fontSize=10;" parent="1" vertex="1">
          <mxGeometry x="487.08" y="192.5" width="60" height="30" as="geometry" />
        </mxCell>
        <mxCell id="yRm_6xU5N3fanCTpzdw1-196" value="" style="group;dropTarget=0;pointerEvents=0;rotation=90;" parent="1" vertex="1">
          <mxGeometry x="561.004549080727" y="255.5" width="45.035450919273046" height="15" as="geometry" />
        </mxCell>
        <mxCell id="yRm_6xU5N3fanCTpzdw1-197" value="" style="html=1;overflow=block;blockSpacing=1;whiteSpace=wrap;ellipse;fontSize=13;spacing=3.8;strokeColor=#000000;fillOpacity=100;rounded=1;absoluteArcSize=1;arcSize=9;rotation=180;fillColor=#FFFFFF;strokeWidth=1;lucidId=aJupBf46AVSY;" parent="yRm_6xU5N3fanCTpzdw1-196" vertex="1">
          <mxGeometry x="15" y="15" width="15" height="15" as="geometry" />
        </mxCell>
        <mxCell id="yRm_6xU5N3fanCTpzdw1-198" value="" style="html=1;jettySize=18;whiteSpace=wrap;fontSize=13;strokeColor=#3a414a;strokeOpacity=100;strokeWidth=0.8;rounded=0;startArrow=none;endArrow=block;endFill=1;exitX=0.5;exitY=1.051;exitPerimeter=0;lucidId=aJup3SFMS550;" parent="yRm_6xU5N3fanCTpzdw1-196" source="yRm_6xU5N3fanCTpzdw1-197" edge="1">
          <mxGeometry width="100" height="100" relative="1" as="geometry">
            <Array as="points" />
            <mxPoint x="23" y="-15" as="targetPoint" />
          </mxGeometry>
        </mxCell>
        <mxCell id="yRm_6xU5N3fanCTpzdw1-199" value="upload results&lt;br&gt;finish vote&lt;div&gt;act on results&lt;/div&gt;" style="text;html=1;align=center;verticalAlign=middle;resizable=0;points=[];autosize=1;strokeColor=none;fillColor=none;fontSize=9;" parent="1" vertex="1">
          <mxGeometry x="509" y="235" width="80" height="50" as="geometry" />
        </mxCell>
        <mxCell id="yRm_6xU5N3fanCTpzdw1-209" value="" style="group;dropTarget=0;pointerEvents=0;rotation=-90;" parent="1" vertex="1">
          <mxGeometry x="710.004549080727" y="205" width="45.035450919273046" height="15" as="geometry" />
        </mxCell>
        <mxCell id="yRm_6xU5N3fanCTpzdw1-210" value="" style="html=1;overflow=block;blockSpacing=1;whiteSpace=wrap;ellipse;fontSize=13;spacing=3.8;strokeColor=#unset;fillOpacity=100;rounded=1;absoluteArcSize=1;arcSize=9;rotation=0;fillColor=#000000;strokeWidth=NaN;lucidId=aJupBf46AVSY;" parent="yRm_6xU5N3fanCTpzdw1-209" vertex="1">
          <mxGeometry x="14" y="-15" width="15" height="15" as="geometry" />
        </mxCell>
        <mxCell id="yRm_6xU5N3fanCTpzdw1-211" value="" style="html=1;jettySize=18;whiteSpace=wrap;fontSize=13;strokeColor=#3a414a;strokeOpacity=100;strokeWidth=0.8;rounded=0;startArrow=none;endArrow=block;endFill=1;exitX=0.5;exitY=1.051;exitPerimeter=0;lucidId=aJup3SFMS550;" parent="yRm_6xU5N3fanCTpzdw1-209" source="yRm_6xU5N3fanCTpzdw1-210" edge="1">
          <mxGeometry width="100" height="100" relative="1" as="geometry">
            <Array as="points" />
            <mxPoint x="22" y="30" as="targetPoint" />
          </mxGeometry>
        </mxCell>
        <mxCell id="yRm_6xU5N3fanCTpzdw1-212" value="&lt;font style=&quot;font-size: 10px;&quot;&gt;login form created&lt;/font&gt;" style="text;html=1;align=center;verticalAlign=middle;resizable=0;points=[];autosize=1;strokeColor=none;fillColor=none;fontSize=10;" parent="1" vertex="1">
          <mxGeometry x="730" y="205" width="100" height="30" as="geometry" />
        </mxCell>
        <mxCell id="yRm_6xU5N3fanCTpzdw1-213" value="" style="group;dropTarget=0;pointerEvents=0;rotation=90;" parent="1" vertex="1">
          <mxGeometry x="710.004549080727" y="255" width="45.035450919273046" height="15" as="geometry" />
        </mxCell>
        <mxCell id="yRm_6xU5N3fanCTpzdw1-214" value="" style="html=1;overflow=block;blockSpacing=1;whiteSpace=wrap;ellipse;fontSize=13;spacing=3.8;strokeColor=#000000;fillOpacity=100;rounded=1;absoluteArcSize=1;arcSize=9;rotation=180;fillColor=#FFFFFF;strokeWidth=1;lucidId=aJupBf46AVSY;" parent="yRm_6xU5N3fanCTpzdw1-213" vertex="1">
          <mxGeometry x="15" y="15" width="15" height="15" as="geometry" />
        </mxCell>
        <mxCell id="yRm_6xU5N3fanCTpzdw1-215" value="" style="html=1;jettySize=18;whiteSpace=wrap;fontSize=13;strokeColor=#3a414a;strokeOpacity=100;strokeWidth=0.8;rounded=0;startArrow=none;endArrow=block;endFill=1;exitX=0.5;exitY=1.051;exitPerimeter=0;lucidId=aJup3SFMS550;" parent="yRm_6xU5N3fanCTpzdw1-213" source="yRm_6xU5N3fanCTpzdw1-214" edge="1">
          <mxGeometry width="100" height="100" relative="1" as="geometry">
            <Array as="points" />
            <mxPoint x="23" y="-15" as="targetPoint" />
          </mxGeometry>
        </mxCell>
        <mxCell id="yRm_6xU5N3fanCTpzdw1-216" value="user details inputted" style="text;html=1;align=center;verticalAlign=middle;resizable=0;points=[];autosize=1;strokeColor=none;fillColor=none;fontSize=9;" parent="1" vertex="1">
          <mxGeometry x="730" y="250" width="100" height="20" as="geometry" />
        </mxCell>
        <mxCell id="yRm_6xU5N3fanCTpzdw1-217" value="" style="group;dropTarget=0;pointerEvents=0;rotation=-90;" parent="1" vertex="1">
          <mxGeometry x="710.004549080727" y="352.5" width="45.035450919273046" height="15" as="geometry" />
        </mxCell>
        <mxCell id="yRm_6xU5N3fanCTpzdw1-218" value="" style="html=1;overflow=block;blockSpacing=1;whiteSpace=wrap;ellipse;fontSize=13;spacing=3.8;strokeColor=#unset;fillOpacity=100;rounded=1;absoluteArcSize=1;arcSize=9;rotation=0;fillColor=#000000;strokeWidth=NaN;lucidId=aJupBf46AVSY;" parent="yRm_6xU5N3fanCTpzdw1-217" vertex="1">
          <mxGeometry x="14" y="-15" width="15" height="15" as="geometry" />
        </mxCell>
        <mxCell id="yRm_6xU5N3fanCTpzdw1-219" value="" style="html=1;jettySize=18;whiteSpace=wrap;fontSize=13;strokeColor=#3a414a;strokeOpacity=100;strokeWidth=0.8;rounded=0;startArrow=none;endArrow=block;endFill=1;exitX=0.5;exitY=1.051;exitPerimeter=0;lucidId=aJup3SFMS550;" parent="yRm_6xU5N3fanCTpzdw1-217" source="yRm_6xU5N3fanCTpzdw1-218" edge="1">
          <mxGeometry width="100" height="100" relative="1" as="geometry">
            <Array as="points" />
            <mxPoint x="22" y="30" as="targetPoint" />
          </mxGeometry>
        </mxCell>
        <mxCell id="yRm_6xU5N3fanCTpzdw1-220" value="&lt;font style=&quot;font-size: 10px;&quot;&gt;data sent to store&lt;/font&gt;" style="text;html=1;align=center;verticalAlign=middle;resizable=0;points=[];autosize=1;strokeColor=none;fillColor=none;fontSize=10;" parent="1" vertex="1">
          <mxGeometry x="730" y="352.5" width="100" height="30" as="geometry" />
        </mxCell>
        <mxCell id="yRm_6xU5N3fanCTpzdw1-221" value="" style="group;dropTarget=0;pointerEvents=0;rotation=90;" parent="1" vertex="1">
          <mxGeometry x="710.004549080727" y="402.5" width="45.035450919273046" height="15" as="geometry" />
        </mxCell>
        <mxCell id="yRm_6xU5N3fanCTpzdw1-222" value="" style="html=1;overflow=block;blockSpacing=1;whiteSpace=wrap;ellipse;fontSize=13;spacing=3.8;strokeColor=#000000;fillOpacity=100;rounded=1;absoluteArcSize=1;arcSize=9;rotation=180;fillColor=#FFFFFF;strokeWidth=1;lucidId=aJupBf46AVSY;" parent="yRm_6xU5N3fanCTpzdw1-221" vertex="1">
          <mxGeometry x="15" y="15" width="15" height="15" as="geometry" />
        </mxCell>
        <mxCell id="yRm_6xU5N3fanCTpzdw1-223" value="" style="html=1;jettySize=18;whiteSpace=wrap;fontSize=13;strokeColor=#3a414a;strokeOpacity=100;strokeWidth=0.8;rounded=0;startArrow=none;endArrow=block;endFill=1;exitX=0.5;exitY=1.051;exitPerimeter=0;lucidId=aJup3SFMS550;" parent="yRm_6xU5N3fanCTpzdw1-221" source="yRm_6xU5N3fanCTpzdw1-222" edge="1">
          <mxGeometry width="100" height="100" relative="1" as="geometry">
            <Array as="points" />
            <mxPoint x="23" y="-15" as="targetPoint" />
          </mxGeometry>
        </mxCell>
        <mxCell id="yRm_6xU5N3fanCTpzdw1-224" value="data encrypted&lt;div&gt;data stored&lt;/div&gt;" style="text;html=1;align=center;verticalAlign=middle;resizable=0;points=[];autosize=1;strokeColor=none;fillColor=none;fontSize=9;" parent="1" vertex="1">
          <mxGeometry x="729.08" y="387.5" width="80" height="40" as="geometry" />
        </mxCell>
      </root>
    </mxGraphModel>
  </diagram>
</mxfile>
